# xmcd
#
# Track frame offsets: 
#        150
#        21808
#        38907
#        50654
#        66398
#        83035
#        94883
#        113469
#        134335
#        157980
#        173479
#        185170
#        212572
#        226661
#        256613
#        273276
#        291456
#
# Disc length: 4106 seconds
#
# Revision: 0
# Processed by: cddbd v1.5.2PL0 Copyright (c) Steve Scherf et al.
# Submitted via: ExactAudioCopy v0.95a5
#
DISCID=e5100811
DTITLE=Kerry Kearney Band - More Essential
DYEAR=2008
DGENRE=Country
TTITLE0=Poor Boy
TTITLE1=Roll Over Bethoveen
TTITLE2=Hotter Than Ice Cream
TTITLE3=Hair Hang Down
TTITLE4=Looking For A Girl
TTITLE5=Went To See The Lord
TTITLE6=Voodoo Down The River
TTITLE7=Independence Day
TTITLE8=Gypsy Baby
TTITLE9=Mississippi
TTITLE10=Come On Down
TTITLE11=Runnin Weepin Tremblin
TTITLE12=Howlin At The Moon
TTITLE13=Ramblin On My Mind
TTITLE14=Really Ruined It (acoustic)
TTITLE15=Passing Your Dyin Eyes
TTITLE16=Danny Boy
EXTD=
EXTT0=
EXTT1=
EXTT2=
EXTT3=
EXTT4=
EXTT5=
EXTT6=
EXTT7=
EXTT8=
EXTT9=
EXTT10=
EXTT11=
EXTT12=
EXTT13=
EXTT14=
EXTT15=
EXTT16=
PLAYORDER=
